<?xml version="1.0" encoding="UTF-8"?>
<!DOCTYPE svg PUBLIC "-//W3C//DTD SVG 1.1//EN" "http://www.w3.org/Graphics/SVG/1.1/DTD/svg11.dtd">
<svg xmlns="http://www.w3.org/2000/svg" version="1.1" width="600px" height="600px" style="shape-rendering:geometricPrecision; text-rendering:geometricPrecision; image-rendering:optimizeQuality; fill-rule:evenodd; clip-rule:evenodd" xmlns:xlink="http://www.w3.org/1999/xlink">
<g><path style="opacity:1" fill="#ec322a" d="M 205.5,205.5 C 243.167,205.5 280.833,205.5 318.5,205.5C 318.5,218.167 318.5,230.833 318.5,243.5C 324.5,243.5 330.5,243.5 336.5,243.5C 336.5,230.833 336.5,218.167 336.5,205.5C 374.167,205.5 411.833,205.5 449.5,205.5C 449.5,243.167 449.5,280.833 449.5,318.5C 411.833,318.5 374.167,318.5 336.5,318.5C 336.5,299.833 336.5,281.167 336.5,262.5C 330.5,262.5 324.5,262.5 318.5,262.5C 318.5,281.167 318.5,299.833 318.5,318.5C 280.833,318.5 243.167,318.5 205.5,318.5C 205.5,299.833 205.5,281.167 205.5,262.5C 193.167,262.5 180.833,262.5 168.5,262.5C 168.5,274.833 168.5,287.167 168.5,299.5C 162.167,299.5 155.833,299.5 149.5,299.5C 149.5,280.833 149.5,262.167 149.5,243.5C 168.167,243.5 186.833,243.5 205.5,243.5C 205.5,230.833 205.5,218.167 205.5,205.5 Z"/></g>
<g><path style="opacity:1" fill="#f9faf9" d="M 262.5,223.5 C 262.5,248.833 262.5,274.167 262.5,299.5C 249.5,299.5 236.5,299.5 223.5,299.5C 223.5,274.167 223.5,248.833 223.5,223.5C 236.5,223.5 249.5,223.5 262.5,223.5 Z"/></g>
<g><path style="opacity:1" fill="#000000" d="M 262.5,223.5 C 274.833,223.5 287.167,223.5 299.5,223.5C 299.5,248.833 299.5,274.167 299.5,299.5C 287.167,299.5 274.833,299.5 262.5,299.5C 262.5,274.167 262.5,248.833 262.5,223.5 Z"/></g>
<g><path style="opacity:1" fill="#f9faf9" d="M 393.5,223.5 C 393.5,248.833 393.5,274.167 393.5,299.5C 380.833,299.5 368.167,299.5 355.5,299.5C 355.5,274.167 355.5,248.833 355.5,223.5C 368.167,223.5 380.833,223.5 393.5,223.5 Z"/></g>
<g><path style="opacity:1" fill="#000000" d="M 393.5,223.5 C 405.833,223.5 418.167,223.5 430.5,223.5C 430.5,248.833 430.5,274.167 430.5,299.5C 418.167,299.5 405.833,299.5 393.5,299.5C 393.5,274.167 393.5,248.833 393.5,223.5 Z"/></g>
</svg>
