<?xml version="1.0" encoding="UTF-8"?>
<svg version="1.1" xmlns="http://www.w3.org/2000/svg" width="600" height="600">
<path d="M0 0 C37.29 0 74.58 0 113 0 C113 12.54 113 25.08 113 38 C118.94 38 124.88 38 131 38 C131 25.46 131 12.92 131 0 C168.29 0 205.58 0 244 0 C244 37.29 244 74.58 244 113 C206.71 113 169.42 113 131 113 C131 94.52 131 76.04 131 57 C125.06 57 119.12 57 113 57 C113 75.48 113 93.96 113 113 C75.71 113 38.42 113 0 113 C0 94.52 0 76.04 0 57 C-12.21 57 -24.42 57 -37 57 C-37 69.21 -37 81.42 -37 94 C-43.27 94 -49.54 94 -56 94 C-56 75.52 -56 57.04 -56 38 C-37.52 38 -19.04 38 0 38 C0 25.46 0 12.92 0 0 Z " fill="#FFC110" transform="translate(206,206)"/>
<path d="M0 0 C37.29 0 74.58 0 113 0 C113 37.29 113 74.58 113 113 C75.71 113 38.42 113 0 113 C0 94.52 0 76.04 0 57 C-5.94 57 -11.88 57 -18 57 C-18 50.73 -18 44.46 -18 38 C-12.06 38 -6.12 38 0 38 C0 25.46 0 12.92 0 0 Z " fill="#F98F30" transform="translate(337,206)"/>
<path d="M0 0 C12.87 0 25.74 0 39 0 C39 25.08 39 50.16 39 76 C26.13 76 13.26 76 0 76 C0 50.92 0 25.84 0 0 Z " fill="#FFFFFF" transform="translate(224,224)"/>
<path d="M0 0 C12.54 0 25.08 0 38 0 C38 25.08 38 50.16 38 76 C25.46 76 12.92 76 0 76 C0 50.92 0 25.84 0 0 Z " fill="#FFFFFF" transform="translate(356,224)"/>
<path d="M0 0 C12.21 0 24.42 0 37 0 C37 25.08 37 50.16 37 76 C24.79 76 12.58 76 0 76 C0 50.92 0 25.84 0 0 Z " fill="#000000" transform="translate(394,224)"/>
<path d="M0 0 C12.21 0 24.42 0 37 0 C37 25.08 37 50.16 37 76 C24.79 76 12.58 76 0 76 C0 50.92 0 25.84 0 0 Z " fill="#000000" transform="translate(263,224)"/>
<path d="M0 0 C18.48 0 36.96 0 56 0 C56 6.27 56 12.54 56 19 C43.79 19 31.58 19 19 19 C19 31.21 19 43.42 19 56 C12.73 56 6.46 56 0 56 C0 37.52 0 19.04 0 0 Z " fill="#F78A18" transform="translate(150,244)"/>
<path d="M0 0 C6.27 0 12.54 0 19 0 C19 12.21 19 24.42 19 37 C12.73 37 6.46 37 0 37 C0 24.79 0 12.58 0 0 Z " fill="#FFC110" transform="translate(150,263)"/>
<path d="M0 0 C5.94 0 11.88 0 18 0 C18 6.27 18 12.54 18 19 C12.06 19 6.12 19 0 19 C0 12.73 0 6.46 0 0 Z " fill="#F78A18" transform="translate(319,244)"/>
</svg>
